<?xml version="1.0" encoding="utf-8"?>
<!-- Generator: Adobe Illustrator 16.0.0, SVG Export Plug-In . SVG Version: 6.00 Build 0)  -->
<!DOCTYPE svg PUBLIC "-//W3C//DTD SVG 1.1//EN" "http://www.w3.org/Graphics/SVG/1.1/DTD/svg11.dtd">
<svg version="1.1" id="Layer_1" xmlns="http://www.w3.org/2000/svg" xmlns:xlink="http://www.w3.org/1999/xlink" x="0px" y="0px"
	 width="688px" height="264.835px" viewBox="0 0 688 264.835" enable-background="new 0 0 688 264.835" xml:space="preserve">
<g>
	<path fill="#010101" d="M224.504,96.974c1.279,0,2.385,0.437,3.317,1.311c0.931,0.873,1.397,1.95,1.397,3.23v79.113
		c0,2.679-0.873,5.007-2.619,6.986c-1.747,1.981-3.961,3.261-6.637,3.842v-33.707h-33.53v22.879c0,2.679-0.873,5.007-2.62,6.986
		c-1.746,1.981-3.96,3.261-6.637,3.842v-89.941c0-1.28,0.436-2.357,1.309-3.23c0.874-0.874,1.949-1.311,3.232-1.311
		c1.279,0,2.385,0.437,3.317,1.311c0.931,0.873,1.398,1.95,1.398,3.23v46.979h33.53v-46.979c0-1.28,0.437-2.357,1.31-3.23
		C222.146,97.411,223.221,96.974,224.504,96.974"/>
	<path fill="#010101" d="M267.465,122.996c0-7.1,2.56-13.213,7.685-18.337c5.353-5.122,11.525-7.685,18.51-7.685h3.842
		c7.102,0,13.215,2.563,18.34,7.685c5.121,5.007,7.684,11.119,7.684,18.337v42.438c0,7.223-2.563,13.393-7.684,18.512
		c-5.008,5.007-11.121,7.511-18.34,7.511h-3.842c-7.219,0-13.389-2.504-18.51-7.511c-5.125-5.353-7.685-11.524-7.685-18.512V122.996
		z M314.269,122.996c0-4.773-1.631-8.731-4.891-11.875s-7.221-4.716-11.877-4.716h-3.842c-4.539,0-8.5,1.572-11.875,4.716
		c-3.261,3.144-4.891,7.102-4.891,11.875v42.438c0,4.775,1.63,8.733,4.891,11.877c3.145,3.144,7.101,4.715,11.875,4.715h3.842
		c4.773,0,8.734-1.571,11.877-4.715c3.26-3.144,4.891-7.102,4.891-11.877V122.996z"/>
	<path fill="#010101" d="M405.781,104.658c5.123,5.125,7.686,11.237,7.686,18.337v57.632c0,2.68-0.873,5.007-2.623,6.987
		c-1.746,1.979-4.014,3.26-6.809,3.841v-68.46c0-4.773-1.633-8.731-4.889-11.875c-3.143-3.143-7.104-4.716-11.877-4.716
		c-4.658,0-8.557,1.573-11.699,4.716c-3.262,3.26-4.893,7.22-4.893,11.875v57.632c0,2.68-0.873,5.007-2.617,6.987
		c-1.746,1.979-4.02,3.26-6.813,3.841v-89.767c0-1.279,0.465-2.385,1.398-3.318c1.162-0.93,2.326-1.398,3.492-1.398
		c1.979,0,3.375,0.873,4.189,2.621l1.223,2.62l2.447-1.572c4.424-2.446,8.906-3.669,13.445-3.669
		C394.314,96.973,400.425,99.536,405.781,104.658"/>
	<path fill="#010101" d="M498.687,161.068c1.281,0,2.359,0.438,3.234,1.309c0.871,0.875,1.307,1.952,1.307,3.232
		c0,7.104-2.504,13.217-7.508,18.336c-5.125,5.007-11.236,7.511-18.338,7.511c-7.104,0-13.156-2.504-18.162-7.511
		c-5.01-5.119-7.512-11.232-7.512-18.336v-42.613c0-7.1,2.502-13.213,7.512-18.338c5.006-5.122,11.059-7.684,18.162-7.684
		c7.102,0,13.156,2.562,18.162,7.684c5.121,5.008,7.684,11.063,7.684,18.163c0,1.283-0.436,2.358-1.307,3.231
		c-0.875,0.874-1.953,1.309-3.234,1.309s-2.357-0.436-3.23-1.309c-0.873-0.873-1.307-1.948-1.307-3.231v0.175
		c0-0.813-0.09-1.63-0.264-2.445c-0.174-0.813-0.262-1.337-0.262-1.571c-0.699-3.144-2.156-5.704-4.367-7.685
		c-3.143-3.375-7.045-5.065-11.701-5.065c-4.773,0-8.73,1.69-11.875,5.065c-3.143,3.144-4.715,7.045-4.715,11.701v42.613
		c0,4.539,1.572,8.501,4.715,11.875c3.377,3.145,7.334,4.716,11.875,4.716c4.656,0,8.559-1.571,11.701-4.716
		c3.26-3.491,4.893-7.449,4.893-11.875c0-1.28,0.434-2.357,1.307-3.232C496.33,161.505,497.406,161.068,498.687,161.068"/>
	<path fill="#010101" d="M588.978,96.974c1.279,0,2.385,0.437,3.318,1.311c0.932,0.873,1.396,1.95,1.396,3.23v79.113
		c0,2.679-0.873,5.007-2.621,6.986c-1.746,1.981-3.957,3.261-6.635,3.842v-33.707h-33.531v22.879c0,2.679-0.873,5.007-2.619,6.986
		c-1.748,1.981-3.959,3.261-6.637,3.842v-89.941c0-1.28,0.438-2.357,1.309-3.23c0.873-0.874,1.949-1.311,3.232-1.311
		c1.279,0,2.383,0.437,3.318,1.311c0.932,0.873,1.396,1.95,1.396,3.23v46.979h33.531v-46.979c0-1.28,0.438-2.357,1.311-3.23
		C586.621,97.411,587.697,96.974,588.978,96.974"/>
	<path fill="#010101" d="M631.939,122.996c0-7.1,2.561-13.213,7.686-18.337c5.352-5.122,11.527-7.685,18.512-7.685h3.844
		c7.098,0,13.211,2.563,18.336,7.685c5.121,5.007,7.684,11.119,7.684,18.337v42.438c0,7.223-2.563,13.393-7.684,18.512
		c-5.008,5.007-11.121,7.511-18.336,7.511h-3.844c-7.221,0-13.389-2.504-18.512-7.511c-5.125-5.353-7.686-11.524-7.686-18.512
		V122.996z M678.744,122.996c0-4.773-1.631-8.731-4.889-11.875c-3.262-3.144-7.221-4.716-11.875-4.716h-3.844
		c-4.541,0-8.5,1.572-11.877,4.716c-3.26,3.144-4.889,7.102-4.889,11.875v42.438c0,4.775,1.629,8.733,4.889,11.877
		c3.145,3.144,7.102,4.715,11.877,4.715h3.844c4.771,0,8.73-1.571,11.875-4.715c3.258-3.144,4.889-7.102,4.889-11.877V122.996z"/>
	<path fill="#010101" d="M70.973,20.571c0,0,16.41,0.011,25.645-13.647c9.236-13.66,15.384-4.134,12.628,3.222
		S93.256,26.803,70.973,20.571"/>
	<path fill="#010101" d="M2.102,17.047c0,0,17.099-8.749,36.838,0c29.732,13.179,62.043,21.624,82.047-1.897
		c0,0-1.648,17.199-24.158,28.12c-19.426,9.422-31.344,28.627-35.137,54.082c0,0-2.279-23.474-26.938-40.722
		C15.329,43.046,5.885,34.697,2.102,17.047"/>
	<path fill="#010101" d="M125,10.984c-1.301,2.301-2.425,3.246-4.014,5.351v220.037l4.205,4.906V10.249
		C125.125,10.378,125.072,10.857,125,10.984"/>
	<path fill="#010101" d="M43.627,63.953c0,0,18.208,14.844,18.208,47.914v88.582l0.929,2.088V61.704L55.023,51.05"/>
	<path fill="#010101" d="M81.404,54.331c0,0-18.207,17.035-18.207,57.536v88.582l-0.929,2.088V61.704L70.01,51.05"/>
	<path fill="#010101" d="M0,17.85v220.601l4.205-4.906V16.16C3.025,16.596,1.576,17.164,0,17.85"/>
	<path fill="#010101" d="M117.446,18.943c0,0,7.106-7.487,7.746-8.695c0.637-1.207-3.259,13.38-14.779,23.688l-3.532-4.182
		l7.338-6.688l3.832-2.995"/>
	<path fill="#010101" d="M94.422,234.709c-3.216-3.514-6.32-6.912-9.229-10.1l-22.163,8.517l-21.495-8.889l-9.251,10.19
		l30.278,12.52L94.422,234.709z M106.393,247.777c-2.562-2.793-5.127-5.593-7.658-8.356L62.48,253.35l-34.444-14.243l-7.717,8.498
		l41.671,17.23L106.393,247.777z M80.893,219.893c-8.023-8.809-13.797-15.201-14.717-16.364c-3.531-4.461-4.184-29.469-4.184-29.469
		s-0.094,20.994-0.744,24.649c-0.564,3.174-3.592,7.771-3.592,7.771L45.782,219.56l17.329,7.164L80.893,219.893z"/>
</g>
</svg>
